<?xml version="1.0" encoding="UTF-8"?>
<svg id="Layer_2" data-name="Layer 2" xmlns="http://www.w3.org/2000/svg" xmlns:xlink="http://www.w3.org/1999/xlink" viewBox="0 0 109 109">
  <defs>
    <style>
      .cls-1 {
        fill: url(#linear-gradient);
      }

      .cls-2 {
        fill: none;
        stroke: url(#linear-gradient-2);
        stroke-miterlimit: 10;
      }
    </style>
    <linearGradient id="linear-gradient" x1="33.53" y1="97.92" x2="78.4" y2="13.53" gradientUnits="userSpaceOnUse">
      <stop offset="0" stop-color="#c881ff"/>
      <stop offset="1" stop-color="#e7c2f3"/>
    </linearGradient>
    <linearGradient id="linear-gradient-2" x1="22.63" y1="114.43" x2="86.37" y2="-5.43" xlink:href="#linear-gradient"/>
  </defs>
  <g id="Layer_1-2" data-name="Layer 1">
    <path class="cls-1" d="M13.75,44.07l10.41-3.36c1.61,3.96,4.16,4.83,6.18,4.83,1.88,0,3.63-.67,3.63-2.42,0-2.08-2.42-2.82-4.36-3.42l-4.16-1.28c-5.04-1.54-9.94-4.63-9.94-11.28,0-7.25,5.91-12.29,14.77-12.29,7.92,0,13.23,4.1,14.77,9.6l-10.27,3.36c-.74-2.08-2.01-3.96-4.7-3.96-2.01,0-3.36,1.07-3.36,2.55,0,2.01,3.09,2.89,5.84,3.69l2.62.74c3.49,1.01,10.74,2.95,10.74,11.35,0,7.79-5.98,12.49-15.44,12.49s-15.04-4.23-16.72-10.61ZM80.91,54.69h-9.04v-13.63h-2.91l-8.99,13.63h-10.21c3.22-4.8,6.43-9.6,9.65-14.4v-.05c-3.98-1.33-8.48-4.44-8.48-12.2,0-13.17,13.02-13.17,14.09-13.17h15.88v39.82ZM71.87,33.04v-9.96h-5.31c-1.74,0-6.13.66-6.13,5.05s4.6,4.9,6.38,4.9h5.06ZM52.17,84.66l9.3-3c1.44,3.54,3.72,4.32,5.52,4.32,1.68,0,3.24-.6,3.24-2.16,0-1.86-2.16-2.52-3.9-3.06l-3.72-1.14c-4.5-1.38-8.88-4.14-8.88-10.08,0-6.48,5.28-10.98,13.2-10.98,7.08,0,11.82,3.66,13.2,8.58l-9.18,3c-.66-1.86-1.8-3.54-4.2-3.54-1.8,0-3,.96-3,2.28,0,1.8,2.76,2.58,5.22,3.3l2.34.66c3.12.9,9.6,2.64,9.6,10.14,0,6.96-5.34,11.16-13.8,11.16s-13.44-3.78-14.94-9.48ZM13.75,76.38c0-10.44,7.2-17.82,17.58-17.82s17.52,7.38,17.52,17.82-7.2,17.76-17.52,17.76-17.58-7.26-17.58-17.76ZM38.47,76.38c0-4.86-2.94-8.22-7.14-8.22s-7.2,3.42-7.2,8.22,2.94,8.16,7.2,8.16,7.14-3.42,7.14-8.16ZM83.19,87.9c0-3.24,2.7-5.94,6.06-5.94s6,2.7,6,5.94c0,3.48-2.7,6.24-6,6.24s-6.06-2.76-6.06-6.24Z"/>
    <rect class="cls-2" x=".5" y=".5" width="108" height="108" rx="16.05" ry="16.05"/>
  </g>
</svg>