<?xml version="1.0" encoding="utf-8"?>
<!-- Generator: Adobe Illustrator 26.2.1, SVG Export Plug-In . SVG Version: 6.00 Build 0)  -->
<svg version="1.1" id="Layer_1" xmlns="http://www.w3.org/2000/svg" xmlns:xlink="http://www.w3.org/1999/xlink" x="0px" y="0px"
	 viewBox="0 0 60.1 45.5" style="enable-background:new 0 0 60.1 45.5;" xml:space="preserve">
<style type="text/css">
	.st0{fill:#8B67FC;}
</style>
<g>
	<path class="st0" d="M24.2,1.5v3.9c0,0.5-0.4,0.9-0.9,0.9H12.9c-4.3,0-6.5,1.8-6.5,5.3c0,1.9,0.9,3.5,2.8,4.8
		c1.9,1.3,4.5,2.6,7.7,3.7c1.5,0.6,2.7,1.1,3.7,1.7s2,1.3,3.1,2.3c1,0.9,1.8,2.1,2.3,3.6s0.8,3.2,0.8,5.1c0,2.1-0.4,4-1.3,5.7
		s-2,3-3.5,4c-1.4,1-2.8,1.7-4.3,2.2s-2.9,0.8-4.3,0.8c-0.6,0-1.5,0.1-2.6,0.1H1.7c-0.5,0-0.9-0.4-0.9-0.9v-3.9
		c0-0.5,0.4-0.9,0.9-0.9h8.9c2.9,0,5.3-0.6,7.1-1.8s2.8-3,2.8-5.3c0-1.2-0.3-2.2-0.8-3c-0.5-0.9-1.2-1.6-2.2-2.3
		c-1-0.6-1.9-1.2-2.9-1.7s-2.2-1-3.6-1.5c-0.4-0.1-0.7-0.2-0.9-0.3C3.4,21.3,0,17.1,0,11.3c0-3.6,1.2-6.3,3.5-8
		c2.3-1.8,5.3-2.7,9-2.7h10.9C23.8,0.6,24.2,1,24.2,1.5z"/>
	<path class="st0" d="M31.5,45.5c-0.5,0-0.9-0.4-0.9-0.9V16.3c0-5.2,1.3-9.2,3.8-12C37,1.4,40.6,0,45.3,0s8.4,1.2,10.9,3.5
		S60,9.1,60,13.2c0,2.7-0.6,4.9-1.9,6.6c-1.3,1.7-3.5,3.1-6.5,4v0.3c3.2,1.2,5.3,3,6.4,5.3c1.1,2.3,1.6,6.1,1.6,11.3v3.9
		c0,0.5-0.4,0.9-0.9,0.9h-4.3c-0.5,0-0.9-0.4-0.9-0.9v-7.3c0-3.2-0.9-5.8-2.8-7.6C49.1,27.9,46.4,27,43,27h-2.6
		c-0.5,0-0.9-0.4-0.9-0.9v-3.9c0-0.5,0.4-0.9,0.9-0.9h2.8c4.1,0,6.9-0.8,8.5-2.5s2.4-3.7,2.4-6c0-2.2-0.8-3.9-2.3-5.3
		c-1.6-1.3-3.6-2-6.2-2c-2.9,0-5.2,0.8-6.6,2.5c-1.5,1.7-2.2,4.4-2.2,8.2v28.3c0,0.5-0.4,0.9-0.9,0.9L31.5,45.5L31.5,45.5z"/>
</g>
</svg>
